<?xml version="1.0" standalone="no"?>
<!DOCTYPE svg PUBLIC "-//W3C//DTD SVG 20010904//EN"
 "http://www.w3.org/TR/2001/REC-SVG-20010904/DTD/svg10.dtd">
<svg version="1.0" xmlns="http://www.w3.org/2000/svg"
 width="818.000000pt" height="968.000000pt" viewBox="0 0 818.000000 968.000000"
 preserveAspectRatio="xMidYMid meet">

<g transform="translate(0.000000,968.000000) scale(0.100000,-0.100000)"
fill="#3d8bcc" stroke="none">
<path d="M4130 7990 c-289 -35 -576 -134 -808 -278 -503 -313 -838 -833 -912
-1417 -21 -166 -6 -537 26 -637 5 -16 22 -18 180 -18 96 0 174 3 174 8 0 4
-10 54 -22 112 -31 154 -31 430 0 588 69 344 228 635 474 868 212 199 460 331
754 400 111 27 133 28 339 28 238 1 322 -11 500 -69 701 -229 1161 -921 1097
-1648 -7 -73 -21 -167 -31 -209 l-18 -78 178 0 177 0 11 50 c25 114 33 249 28
429 -7 242 -37 406 -114 611 -243 651 -808 1120 -1493 1241 -132 24 -419 33
-540 19z"/>
<path d="M4185 7519 c-335 -34 -638 -181 -885 -429 -224 -223 -358 -481 -411
-788 -18 -107 -19 -169 -19 -1063 l0 -949 290 0 290 0 0 295 0 295 85 -56
c380 -247 837 -307 1266 -164 453 150 801 504 942 955 51 165 62 237 62 440 0
203 -11 275 -62 440 -207 666 -861 1096 -1558 1024z m268 -584 c199 -17 423
-138 565 -306 74 -88 153 -239 184 -354 30 -114 30 -326 -1 -440 -45 -168
-151 -341 -269 -443 -111 -95 -195 -142 -332 -188 -80 -27 -95 -28 -260 -28
-165 0 -180 1 -260 28 -309 102 -522 328 -606 642 -26 97 -26 321 0 418 54
203 157 363 314 488 84 67 227 139 322 163 68 18 208 33 250 29 14 -2 56 -6
93 -9z"/>
<path d="M2870 3755 l0 -175 290 0 290 0 0 175 0 175 -290 0 -290 0 0 -175z"/>
<path d="M2870 3175 c0 -30 4 -45 13 -45 6 1 107 21 222 44 l210 44 -222 1
-223 1 0 -45z"/>
<path d="M3155 3141 l-280 -57 -3 -36 -3 -35 268 53 c147 30 278 56 291 59 17
4 22 12 22 40 0 19 -3 35 -7 34 -5 -1 -134 -27 -288 -58z"/>
<path d="M3190 3034 c-118 -24 -239 -49 -267 -55 -52 -10 -53 -11 -53 -45 0
-21 5 -34 13 -34 7 0 136 25 287 55 151 30 275 55 277 55 2 0 3 16 3 35 0 44
12 45 -260 -11z"/>
<path d="M3160 2909 c-157 -32 -286 -58 -287 -59 -2 0 -3 -17 -3 -39 l0 -38
285 57 c157 31 288 60 291 63 3 3 4 20 2 39 l-3 34 -285 -57z"/>
<path d="M3190 2794 c-118 -24 -239 -49 -267 -55 -52 -10 -53 -11 -53 -45 0
-21 5 -34 13 -34 7 0 136 25 287 55 151 30 275 55 277 55 2 0 3 16 3 35 0 44
12 45 -260 -11z"/>
<path d="M3160 2669 c-157 -32 -286 -58 -287 -59 -7 -1 -2 -70 5 -70 4 0 134
25 290 56 l282 57 0 38 c0 22 -1 39 -2 38 -2 -1 -131 -27 -288 -60z"/>
<path d="M3155 2551 l-280 -57 -3 -38 c-3 -33 -1 -38 15 -34 10 2 141 29 291
59 l272 54 0 37 c0 21 -3 38 -7 37 -5 -1 -134 -27 -288 -58z"/>
<path d="M3148 2432 l-278 -57 0 -37 c0 -37 0 -37 33 -31 17 4 147 30 287 58
l255 51 3 37 c2 26 -1 37 -10 36 -7 -1 -138 -26 -290 -57z"/>
<path d="M3143 2313 l-273 -56 0 -37 0 -37 268 53 c147 30 277 56 290 59 17 4
22 12 22 40 0 27 -4 35 -17 34 -10 -1 -141 -26 -290 -56z"/>
<path d="M3190 2204 c-118 -24 -239 -49 -267 -55 -52 -10 -53 -11 -53 -45 0
-21 5 -34 13 -34 7 0 136 25 287 55 151 30 275 55 277 55 2 0 3 16 3 35 0 44
12 45 -260 -11z"/>
<path d="M3160 2079 c-157 -32 -286 -58 -287 -59 -7 -1 -2 -70 5 -70 4 0 134
25 290 56 l282 57 0 38 c0 22 -1 39 -2 38 -2 -1 -131 -27 -288 -60z"/>
<path d="M3155 1961 l-280 -57 -3 -38 c-3 -33 -1 -38 15 -34 10 2 141 29 291
59 l272 54 0 37 c0 21 -3 38 -7 37 -5 -1 -134 -27 -288 -58z"/>
<path d="M3148 1842 l-278 -57 0 -37 c0 -37 0 -37 33 -31 17 4 147 30 287 58
l255 51 3 37 c2 26 -1 37 -10 36 -7 -1 -138 -26 -290 -57z"/>
<path d="M3143 1722 l-273 -57 0 -36 0 -36 268 53 c147 30 277 56 290 59 17 4
22 12 22 40 0 27 -4 35 -17 34 -10 0 -141 -26 -290 -57z"/>
<path d="M3143 1603 l-273 -56 0 -33 c0 -21 5 -34 13 -34 7 0 136 25 287 55
151 30 275 55 277 55 2 0 3 16 3 35 0 27 -4 35 -17 34 -10 -1 -141 -26 -290
-56z"/>
<path d="M3200 1495 l-205 -43 228 -1 227 -1 0 45 c0 56 16 56 -250 0z"/>
</g>
</svg>
